<svg xmlns="http://www.w3.org/2000/svg" viewBox="0 0 1111.2 702.4"><defs><style>.cls-1,.cls-3,.cls-4{fill:#d9d961;stroke:#00bc7c;stroke-linecap:round;stroke-linejoin:round;}.cls-1{stroke-width:3.37px;}.cls-2{fill:#00bc7c;}.cls-3{stroke-width:3.55px;}.cls-4{stroke-width:3.51px;}</style></defs><title>cash-rain3</title><g id="Capa_2" data-name="Capa 2"><g id="Capa_1-2" data-name="Capa 1"><path class="cls-1" d="M1097.14,455l-.09,0s-.1.23-.29.63c-.06.12-.13.27-.22.43h0l-.13.24,0,.06a2,2,0,0,1-.11.2.31.31,0,0,1,0,.1l-.11.19-.07.12-.11.19-.09.14-.11.18-.1.16-.12.19-.11.16a1.27,1.27,0,0,1-.13.19l-.12.18-.13.19c0,.06-.09.12-.13.19l-.15.2c0,.06-.09.12-.13.19a1.56,1.56,0,0,0-.16.2l-.15.2-.16.21-.16.19-.17.22c-.06.07-.12.13-.17.2s-.12.15-.19.22l-.17.2-.3.34,0,0-.36.39-.09.1c-.13.13-.26.27-.4.4l-.09.09-.42.41,0,0-.47.44-.11.09-.49.43-.09.08-.5.41-.07.05-.56.44-.13.09c-.19.15-.39.29-.59.43l-.12.09-.42.29-.17.11-.52.33,0,0-.58.36a1,1,0,0,0-.17.1l-.49.27-.15.09-.72.38-.15.08-.75.36,0,0-.62.28-.21.09-.45.19-.2.08c-.29.11-.58.23-.88.33l0,0-.88.3-.18.06-.92.28-.2,0c-.31.09-.63.18-1,.25l-.06,0-.7.16-.45.1-.14,0-.32.08-.16,0-.31.08-.17,0-.34.09-.11,0h0l-.57.16-.14,0-.51.16-.1,0-.6.19-.14,0-.53.18-.09,0-.62.22-.13.06-.55.21-.09,0-.62.26-.14.06-.54.25-.1.05-.61.29-.14.08-.54.28-.1,0c-.2.11-.4.22-.59.34l-.15.08-.52.31-.09.07-.58.37-.15.1-.49.35-.1.07-.55.42-.14.11-.47.39-.07.06h0l0,0-.54.49-.13.12c-.18.17-.36.34-.53.52l-.47.51a14.42,14.42,0,0,0-2.13,3.12,7.08,7.08,0,0,0-.41,1l4.3,2.59,1.73,1,6.35,3.83.09,0a9.92,9.92,0,0,1,.42-1,14.37,14.37,0,0,1,2.57-3.57c4-4.12,9.78-6.07,13.94-7a28.2,28.2,0,0,0,15.11-8.56,24.8,24.8,0,0,0,3.82-5.52c.19-.4.28-.63.28-.63Z"/><path class="cls-2" d="M1088.18,475.41a.36.36,0,0,1-.19-.07l-.43-.34a5.77,5.77,0,0,1-2,.14,3,3,0,0,1-1.43-.49s-.05-.06,0-.09,0-.06.09-.08l1.67-.55a1.12,1.12,0,0,1,.22-.05h.27a2.17,2.17,0,0,0,.8-.09,2,2,0,0,0,.43-.2c.09-.07.11-.12.05-.17a.58.58,0,0,0-.41-.06,9.72,9.72,0,0,0-1,.19,4.47,4.47,0,0,1-3.79-.39c-.4-.31-.57-.63-.49-1s.39-.66.93-.94l-.5-.4s-.08-.09-.06-.13a.15.15,0,0,1,.11-.11l1.13-.37a.47.47,0,0,1,.24,0,.51.51,0,0,1,.21.09l.51.42a6.72,6.72,0,0,1,1.4-.09,5.05,5.05,0,0,1,1.19.18,2.49,2.49,0,0,1,.78.35.11.11,0,0,1,0,.11s0,.06-.09.08l-1.82.6a1.12,1.12,0,0,1-.22,0,1.24,1.24,0,0,1-.25,0,1.5,1.5,0,0,0-.6.06q-.44.15-.24.3a.59.59,0,0,0,.38.07,7.93,7.93,0,0,0,.91-.17,11.06,11.06,0,0,1,1.7-.27,3.93,3.93,0,0,1,1.24.12,2.36,2.36,0,0,1,.93.51.79.79,0,0,1,.32,1,2.11,2.11,0,0,1-1.08.9l.43.35a.09.09,0,0,1,0,.11.16.16,0,0,1-.11.1l-1,.34A.5.5,0,0,1,1088.18,475.41Z"/><path class="cls-3" d="M40.41,687.18A48.86,48.86,0,0,0,35.05,680c-3.67-3.82-9.42-8.45-15.91-8.77L1.77,675.7v.14c.23,0,.46,0,.69,0l.21,0,.47.06.24,0,.46.08.22,0,.59.13.07,0,.66.17.2.06.45.15.24.07.43.16.21.08.51.2.12.06.65.28.19.09.46.23.21.1.5.27.13.07.6.35.17.1.45.27.19.13.45.29.15.1.56.39.15.11.42.31.15.11c.3.22.59.45.88.68l.09.08.87.72.06.06.48.42.11.09.34.32.13.12.64.61.12.12L17,684l.14.13.43.45c.23.23.45.48.67.72a2.09,2.09,0,0,1,.14.17c.12.13.23.27.34.4l.49.59.3.38.45.6.29.39c.14.19.28.38.41.58l.28.39.43.62.24.36.48.71.18.28.64,1,.72,1.1,0,.07.71,1.06.08.11.71,1,.09.13.72,1,.06.09h0l.09.1c.38.5.77,1,1.18,1.46l0,.06.37.42.28.3a.69.69,0,0,1,.11.13l.39.39.13.12c.1.11.21.21.31.3.32.31.66.6,1,.89l.08.06.13.11h0l5.34-1.38,1.43-.37,4.2-1.08,1.06-.27h0l5.33-1.38.07-.11C44.71,693.75,42.52,690.41,40.41,687.18Z"/><path class="cls-2" d="M21.47,684.43a.23.23,0,0,1,.12-.17l.69-.34a3.26,3.26,0,0,1-.65-2,1.54,1.54,0,0,1,.84-1.27.27.27,0,0,1,.2,0,.33.33,0,0,1,.19.11l1.49,1.78a.88.88,0,0,1,.14.23.69.69,0,0,1,0,.26,1.3,1.3,0,0,0,.35.81,2.62,2.62,0,0,0,.5.47c.16.11.28.14.37.09s.14-.19.06-.39a6.75,6.75,0,0,0-.6-1c-1.12-1.73-1.06-2.9.18-3.53a2.77,2.77,0,0,1,1.94-.16,5,5,0,0,1,2.07,1.14l.71-.35a.31.31,0,0,1,.25,0,.36.36,0,0,1,.23.14l1,1.14a.27.27,0,0,1,.07.22.25.25,0,0,1-.13.17l-.75.37a3.44,3.44,0,0,1,.45,1.33,2.17,2.17,0,0,1-.14,1.08,1.42,1.42,0,0,1-.56.66.37.37,0,0,1-.21,0,.32.32,0,0,1-.18-.1l-1.57-1.89a.72.72,0,0,1-.14-.22.57.57,0,0,1,0-.23.85.85,0,0,0-.24-.59c-.25-.3-.47-.41-.66-.31s-.12.16-.06.34a4.19,4.19,0,0,0,.5.92,7.2,7.2,0,0,1,.87,1.7,1.66,1.66,0,0,1,0,1.17,1.82,1.82,0,0,1-.89.8,2.73,2.73,0,0,1-2,.11,5.58,5.58,0,0,1-2.17-1.28l-.7.34a.35.35,0,0,1-.25,0,.45.45,0,0,1-.23-.14l-.94-1.13A.27.27,0,0,1,21.47,684.43Z"/><path class="cls-4" d="M577.8,11.37l-5.44-2.95h0l-6.81-3.71h0l-5.43-2.95h0l-.56.83-.16.24h0l-.35.51-.5.69c-.06.08-.11.16-.17.23l-.08.11-.71.93-.08.1c-.22.28-.44.55-.67.82l0,0-.23.27-.52.62-.3.33-.51.56-.25.27-.05.06-.59.61-.21.21c-.26.27-.52.53-.79.78l-.16.15-.08.08-.61.57-.07.06-.27.24-.55.48-.33.28-.55.46-.1.07-.64.51-.2.16-.19.14-1,.74-.4.27-.17.12-.34.23-.16.11-.19.12L547,15l-.78.49-.27.17-.13.07-.28.17-.3.17-.2.12-.22.12-.29.17-.25.13-.19.1-.29.16-.26.13-.19.09-.26.13-1.07.52-.21.1-1.06.46-.21.09-.67.27-.06,0-.27.11L539,19l-.31.11h0l-.6.21-.16.05-.14.05-.86.28a41.24,41.24,0,0,1-6.5,1.45l-.3,0-.12,0-.21,0h-.13l-.2,0-.13,0-.19,0H529l-.18,0-.14,0h-.3l-.15,0h-4l0,.1,17.68,9.62a32,32,0,0,0,6.25-.34,41.48,41.48,0,0,0,6.5-1.45,41.14,41.14,0,0,0,11.73-5.79,44.5,44.5,0,0,0,11.56-12.19Z"/><path class="cls-2" d="M557.42,24.91a.58.58,0,0,1-.28-.09l-.71-.52a6.05,6.05,0,0,1-2.64.58,3.79,3.79,0,0,1-2-.58.21.21,0,0,1-.09-.16.15.15,0,0,1,.09-.14l2-1.23a.94.94,0,0,1,.28-.12,2.55,2.55,0,0,1,.36,0,2,2,0,0,0,1-.31,1.53,1.53,0,0,0,.51-.41c.1-.13.1-.22,0-.29a.69.69,0,0,0-.58,0,11.21,11.21,0,0,0-1.3.52q-3.09,1.42-5,0a1.79,1.79,0,0,1-.88-1.48A2.31,2.31,0,0,1,549,19l-.74-.53a.24.24,0,0,1-.12-.2.22.22,0,0,1,.12-.19l1.28-.82a.52.52,0,0,1,.29-.07.48.48,0,0,1,.29.09l.77.56a6.49,6.49,0,0,1,1.75-.43,5.61,5.61,0,0,1,1.6,0,3,3,0,0,1,1.14.41.19.19,0,0,1,.09.16.18.18,0,0,1-.09.15l-2.17,1.35a.94.94,0,0,1-.28.12,1.39,1.39,0,0,1-.32,0,1.43,1.43,0,0,0-.76.21c-.34.22-.41.39-.22.54a.71.71,0,0,0,.52,0,5.74,5.74,0,0,0,1.12-.45,10.11,10.11,0,0,1,2.15-.77,4.32,4.32,0,0,1,1.7-.07,3.62,3.62,0,0,1,1.46.66,1.68,1.68,0,0,1,.83,1.6,2.91,2.91,0,0,1-1.14,1.77l.72.52a.21.21,0,0,1,.11.2.21.21,0,0,1-.12.18l-1.31.77A.54.54,0,0,1,557.42,24.91Z"/></g></g></svg>