<svg xmlns="http://www.w3.org/2000/svg" viewBox="0 0 1140.01 637.97"><defs><style>.cls-1,.cls-3,.cls-4,.cls-5{fill:#d9d961;stroke:#00bc7c;stroke-linecap:round;stroke-linejoin:round;}.cls-1{stroke-width:3.55px;}.cls-2{fill:#00bc7c;}.cls-3{stroke-width:3.51px;}.cls-4{stroke-width:3.69px;}.cls-5{stroke-width:3.71px;}</style></defs><title>cash-rain-bottom</title><g id="Capa_2" data-name="Capa 2"><g id="Capa_1-2" data-name="Capa 1"><path class="cls-1" d="M1131,187.38a49.58,49.58,0,0,0-5.36-7.19c-3.67-3.82-9.42-8.45-15.91-8.77l-17.37,4.48V176l.68.05.22,0,.47.06.24,0,.46.08.22,0,.59.13.07,0,.66.17.2.06.45.15.23.07.43.16.22.08.51.2.12.06.65.28.18.09.47.23.2.11.5.26.13.07c.21.11.41.23.61.35l.17.1c.15.09.3.18.44.28l.2.12.45.29.14.1.57.39.15.11.42.31.15.11c.3.22.59.45.87.68l.1.08.86.72.07.06.47.42.11.09.35.32.13.12.64.61.12.12c.12.11.23.23.34.34a1.85,1.85,0,0,1,.14.14l.43.44c.23.23.45.48.67.72a2.09,2.09,0,0,0,.14.17c.12.13.23.27.34.4s.33.39.48.59l.3.38.46.6.29.39.41.58.28.39.42.62.25.36.47.71.19.28c.21.32.42.65.64,1l.72,1.1,0,.07.71,1.06.08.11.7,1a1.13,1.13,0,0,1,.1.13c.24.33.47.66.72,1l.06.09h0l.08.1c.39.5.78,1,1.18,1.46l.06.06.37.42.28.3.11.13c.14.14.26.27.39.39l.12.12c.11.11.21.21.32.3.32.31.66.61,1,.89l.07.06.14.11h0l5.33-1.38,1.43-.37,4.21-1.08,1-.27h0l5.34-1.38.06-.11C1135.3,194,1133.12,190.61,1131,187.38Z"/><path class="cls-2" d="M1112.07,184.63a.23.23,0,0,1,.12-.17l.69-.34a3.2,3.2,0,0,1-.65-2,1.55,1.55,0,0,1,.83-1.27.3.3,0,0,1,.21,0,.33.33,0,0,1,.19.11l1.48,1.78a.62.62,0,0,1,.17.49,1.25,1.25,0,0,0,.35.81,2.35,2.35,0,0,0,.5.47c.16.11.28.14.37.09s.14-.18.06-.39a7.75,7.75,0,0,0-.6-1.05c-1.12-1.73-1.06-2.9.18-3.53a2.77,2.77,0,0,1,1.94-.16,5,5,0,0,1,2.07,1.14l.7-.35a.33.33,0,0,1,.26,0,.39.39,0,0,1,.23.14l1,1.14a.26.26,0,0,1,.06.22.19.19,0,0,1-.13.17l-.74.37a3.44,3.44,0,0,1,.45,1.33,2.06,2.06,0,0,1-.15,1.08,1.37,1.37,0,0,1-.56.66.27.27,0,0,1-.2,0,.32.32,0,0,1-.18-.1l-1.57-1.89a.56.56,0,0,1-.14-.22.79.79,0,0,1,0-.23.8.8,0,0,0-.23-.59c-.25-.3-.47-.41-.66-.31s-.12.16-.07.34a4.92,4.92,0,0,0,.51.92,7.29,7.29,0,0,1,.86,1.7,1.56,1.56,0,0,1,0,1.17,1.75,1.75,0,0,1-.88.8,2.73,2.73,0,0,1-2,.11,5.68,5.68,0,0,1-2.18-1.28l-.69.34a.36.36,0,0,1-.25,0,.39.39,0,0,1-.23-.14l-.95-1.13A.26.26,0,0,1,1112.07,184.63Z"/><path class="cls-3" d="M591.68,616.35l-5.44-3h0l-6.81-3.7h0l-5.43-3h0c-.19.28-.37.56-.56.83l-.16.24h0c-.11.17-.23.33-.35.5l-.5.7c-.06.07-.11.15-.17.23l-.08.1c-.23.32-.47.63-.71.93l-.08.1c-.22.28-.44.55-.67.82l0,0-.23.27c-.17.21-.35.42-.53.62l-.29.33-.51.57-.25.27-.05.05-.59.62-.21.21-.79.78-.16.15-.08.07-.61.57-.07.06-.27.24c-.18.17-.37.32-.55.48l-.33.28-.56.46-.09.07c-.21.18-.42.34-.64.51l-.2.16-.19.14-1,.74-.4.28-.17.12-.34.22-.17.11-.18.13-.31.2-.78.48-.27.17-.13.08-.28.16-.3.18-.2.11-.23.13-.28.16-.25.13-.2.11-.28.15-.26.13-.19.1-.26.13-1.07.51-.21.1-1.06.46-.21.09-.67.27-.06,0-.27.1-.58.22-.31.11h0l-.6.21-.16.05-.14,0-.86.28a41.24,41.24,0,0,1-6.5,1.45l-.3,0h-.12l-.21,0h-.14l-.19,0h-.13l-.19,0-.13,0-.18,0h-.3l-.14,0h-4.19l0,.11,17.68,9.61a30.49,30.49,0,0,0,6.25-.33,41.79,41.79,0,0,0,18.23-7.24,44.54,44.54,0,0,0,11.56-12.2Z"/><path class="cls-2" d="M571.3,629.88a.58.58,0,0,1-.28-.09l-.72-.51a6.13,6.13,0,0,1-2.63.58,3.79,3.79,0,0,1-2-.59.17.17,0,0,1,0-.3l2-1.22a.94.94,0,0,1,.28-.12,1.6,1.6,0,0,1,.36,0,2.13,2.13,0,0,0,1-.31,1.66,1.66,0,0,0,.51-.42c.1-.12.1-.22,0-.29a.69.69,0,0,0-.58,0,10.06,10.06,0,0,0-1.3.53q-3.09,1.41-5,0a1.82,1.82,0,0,1-.88-1.49,2.33,2.33,0,0,1,.88-1.67l-.74-.53a.23.23,0,0,1-.12-.2.23.23,0,0,1,.12-.19l1.28-.82a.52.52,0,0,1,.29-.07.66.66,0,0,1,.29.09l.77.57a6.16,6.16,0,0,1,1.75-.44,6,6,0,0,1,1.6,0,3.21,3.21,0,0,1,1.14.41.21.21,0,0,1,.09.16.16.16,0,0,1-.09.15l-2.17,1.35a.78.78,0,0,1-.28.13l-.32,0a1.35,1.35,0,0,0-.76.22c-.34.21-.41.39-.22.53a.67.67,0,0,0,.52,0,6.22,6.22,0,0,0,1.12-.44,10.79,10.79,0,0,1,2.15-.78,4.12,4.12,0,0,1,1.7-.06,3.74,3.74,0,0,1,1.46.65,1.69,1.69,0,0,1,.83,1.61,2.89,2.89,0,0,1-1.14,1.76l.72.53a.2.2,0,0,1,.11.19.2.2,0,0,1-.12.18l-1.31.78A.54.54,0,0,1,571.3,629.88Z"/><path class="cls-4" d="M527.8,1.85c0,.28-.1.56-.16.84l-.06.26c-.05.19-.09.38-.14.57s-.06.2-.08.29-.11.38-.17.56-.05.18-.08.27-.16.47-.25.7l0,.09c-.1.27-.2.53-.31.79l-.11.24q-.1.27-.24.54c0,.09-.08.18-.13.27s-.16.34-.25.51-.09.17-.13.26l-.33.6-.08.14c-.14.25-.29.51-.44.75,0,.08-.1.15-.14.23s-.23.36-.35.53-.11.17-.16.25l-.39.57a.91.91,0,0,0-.11.16l-.52.69a1.56,1.56,0,0,1-.16.2l-.39.51-.19.23-.42.5c-.05.06-.09.12-.14.17l-.57.64-.16.18-.43.47-.16.17-1,1-.12.11c-.33.33-.67.64-1,.95l-.09.08c-.4.37-.81.73-1.21,1.07l-.12.11-.85.71-.15.12-.48.38-.19.15-.57.44,0,0-1,.72-.22.15-1,.66-.16.1-1.06.65h0c-.31.19-.63.37-1,.55l-.75.42-.55.3-.79.42-.52.27-.85.44-.47.24-.84.42-.44.21-1.46.74-.08,0-1.41.73-.15.07-1.36.73-.18.1-1.32.75-.11.07h0l-.14.08q-1,.6-2,1.26l-.05,0-.61.42-.39.29-.18.14-.54.41-.18.14-.4.34c-.43.36-.84.73-1.24,1.12l-.13.12a1.36,1.36,0,0,1-.12.12l.73,5.26.21,1.53c.35,2.56.82,6,1.17,8.52h0l.94,6.79.12.09c3.26-3.29,7.7-5.51,12-7.66a61.41,61.41,0,0,0,9.65-5.59c5.25-4,11.79-10.43,13.11-18.4l-3-22.1Z"/><path class="cls-2" d="M514.27,40a.29.29,0,0,1-.17-.21l-.26-1a3.41,3.41,0,0,1-2.53.39,2.07,2.07,0,0,1-1.37-1.5.42.42,0,0,1,0-.29.49.49,0,0,1,.19-.23l2.48-1.52a.84.84,0,0,1,.3-.12.69.69,0,0,1,.3,0,1.27,1.27,0,0,0,1-.22,2.39,2.39,0,0,0,.62-.52.53.53,0,0,0,.17-.44c0-.17-.18-.24-.42-.2a7.47,7.47,0,0,0-1.31.47c-2.27,1-3.72.54-4.21-1.37a4,4,0,0,1,.26-2.66,5.48,5.48,0,0,1,1.85-2.25l-.27-1a.47.47,0,0,1,0-.33.43.43,0,0,1,.21-.23l1.52-.71a.27.27,0,0,1,.26,0,.31.31,0,0,1,.16.22l.27,1a3.22,3.22,0,0,1,1.54,0,2.48,2.48,0,0,1,1.12.57,2,2,0,0,1,.59.9.46.46,0,0,1,0,.26.3.3,0,0,1-.14.17l-2.29,1.26a.6.6,0,0,1-.27.09.78.78,0,0,1-.27-.06.81.81,0,0,0-.71.09c-.39.21-.56.45-.49.73s.17.21.39.2a4.4,4.4,0,0,0,1.13-.33,6.65,6.65,0,0,1,2-.49,1.61,1.61,0,0,1,1.22.4,2.64,2.64,0,0,1,.68,1.33,4,4,0,0,1-.2,2.52,6.55,6.55,0,0,1-1.72,2.42l.25,1a.57.57,0,0,1,0,.34A.44.44,0,0,1,516,39l-1.43,1A.25.25,0,0,1,514.27,40Z"/><path class="cls-5" d="M47,221.68l-.76.06h-2.1l-.26,0h-.17l-.28,0h-.18l-.29,0h-.2l-.3,0-.2,0-.31,0-.22,0-.32,0-.23,0-.33,0-.24,0-.33-.06-.25-.05-.34-.07-.26-.06L39,221h0l-.56-.14-.14,0-.6-.17-.13,0-.61-.19h-.06l-.67-.23L36,220.1l-.68-.25-.12,0-.66-.26-.09,0c-.24-.09-.48-.2-.72-.31l-.16-.07-.73-.34-.14-.07-.5-.26-.2-.1-.59-.32-.07,0-.64-.37-.2-.12-.5-.31-.18-.11-.74-.49-.16-.11-.74-.52-.05,0-.6-.46-.18-.14-.43-.34-.3-.25-.17-.14-.42-.36-.08-.07-.5-.44a1.59,1.59,0,0,0-.13-.13l-.37-.34c-.05-.06-.11-.11-.17-.17l-.33-.32-.18-.18-.34-.35-.15-.16-.49-.52-.53-.6-.33-.38-.1-.1c-.08-.1-.17-.19-.25-.28l-.12-.13-.25-.27-.12-.13-.28-.3-.08-.08,0,0-.47-.47-.1-.11-.43-.42-.08-.07-.5-.48-.12-.1-.46-.42-.08-.08-.54-.47-.13-.1-.49-.41-.09-.08-.58-.45-.14-.1-.52-.4-.1-.07-.61-.43-.14-.1-.56-.37-.1-.06-.64-.4-.16-.1-.58-.33-.1-.06-.68-.37-.16-.08-.61-.3-.11-.05-.71-.31-.17-.07-.64-.26-.08,0h0l-.76-.27-.18-.05c-.26-.09-.53-.17-.79-.24s-.75-.19-1.1-.26a15,15,0,0,0-3.77-.33,6.68,6.68,0,0,0-1.2.14l-.2,4.89c0,1.09-.1,2.4-.15,3.67l-.31,7.34,0,.1a7.52,7.52,0,0,1,1.21-.13,15.54,15.54,0,0,1,4.8.58c6.09,1.66,11,6.23,14.13,9.77A31,31,0,0,0,38.27,237a26.85,26.85,0,0,0,7.35.76c.48,0,.75-.06.76-.06L47,221.79Z"/><path class="cls-2" d="M23.05,223.9a.26.26,0,0,1,0-.19l.1-.52A5.46,5.46,0,0,1,22,221.57a2.48,2.48,0,0,1-.23-1.34.09.09,0,0,1,.07-.08.14.14,0,0,1,.11,0l1.31,1.11a1.1,1.1,0,0,1,.15.16,1.44,1.44,0,0,1,.13.23,2,2,0,0,0,.5.63,1.76,1.76,0,0,0,.41.28q.16.08.18,0a.53.53,0,0,0-.15-.38q-.2-.24-.72-.78c-1.18-1.18-1.65-2.21-1.47-3.12a.84.84,0,0,1,.63-.74,1.81,1.81,0,0,1,1.26.3l.11-.53a.11.11,0,0,1,.09-.1s.09,0,.15,0l.9.67a.37.37,0,0,1,.13.17.25.25,0,0,1,0,.2l-.11.56a5.76,5.76,0,0,1,.83,1.06,4.68,4.68,0,0,1,.49,1.06,1.88,1.88,0,0,1,.1.8.09.09,0,0,1-.07.08.16.16,0,0,1-.13,0l-1.56-1.25a.8.8,0,0,1-.16-.16,1,1,0,0,1-.12-.21,1.33,1.33,0,0,0-.37-.45c-.23-.19-.36-.21-.39-.07s0,.19.13.33a7.22,7.22,0,0,0,.62.66A10.67,10.67,0,0,1,26,222a3.58,3.58,0,0,1,.59,1.12,2.29,2.29,0,0,1,0,1.07.78.78,0,0,1-.78.73,2.67,2.67,0,0,1-1.49-.59l-.11.54a.11.11,0,0,1-.09.1.21.21,0,0,1-.15-.07l-.87-.79A.43.43,0,0,1,23.05,223.9Z"/></g></g></svg>