<?xml version="1.0" encoding="utf-8"?>
<!-- Generator: Adobe Illustrator 19.1.1, SVG Export Plug-In . SVG Version: 6.00 Build 0)  -->
<svg version="1.1" id="Capa_1" xmlns="http://www.w3.org/2000/svg" xmlns:xlink="http://www.w3.org/1999/xlink" x="0px" y="0px"
	 viewBox="0 0 101 101" style="enable-background:new 0 0 101 101;" xml:space="preserve">
<style type="text/css">
	.st0{fill:#FFFF5C;}
	.st1{fill:none;stroke:#FFFF5C;stroke-miterlimit:10;}
</style>
<g>
	<path class="st0" d="M42.4,63.8V38.6c0-1.4,1.5-2.3,2.7-1.5c7.1,4.2,14.2,8.3,21.4,12.6c1.2,0.7,1.2,2.4,0,3.1
		c-7.2,4.2-14.3,8.4-21.4,12.6C43.9,66,42.4,65.2,42.4,63.8z"/>
	<circle class="st1" cx="52.3" cy="52.3" r="32.1"/>
	<path class="st0" d="M85.3,18.3l-0.6,0.8c8.6,8.4,14,20.2,14,33.2c0,25.6-20.8,46.4-46.4,46.4c-23.1,0-42.3-17-45.8-39.1h-1
		C9,82.2,28.7,99.6,52.3,99.6c26.1,0,47.4-21.3,47.4-47.4C99.7,38.9,94.2,26.9,85.3,18.3z"/>
	<g>
		<path class="st0" d="M9.5,52.4c-0.1,0.1-0.1,0.1-0.2,0.1l-7.8-0.7c-0.1,0-0.2,0-0.2-0.1c-0.1-0.1-0.1-0.1-0.1-0.2l0.1-1
			c0-0.2,0.1-0.3,0.3-0.3l4.5-1.9L2,45.6c-0.1-0.1-0.2-0.2-0.2-0.4l0.1-1c0-0.1,0-0.2,0.1-0.2C2,44,2.1,44,2.2,44l7.8,0.7
			c0.1,0,0.2,0,0.2,0.1c0,0.1,0.1,0.1,0.1,0.2l-0.1,1c0,0.1,0,0.1-0.1,0.2c-0.1,0.1-0.1,0.1-0.2,0.1l-5.1-0.4l3,1.9
			C7.9,47.8,8,48,7.9,48.2l0,0.5c0,0.2-0.1,0.3-0.3,0.4l-3.3,1.4l5.1,0.4c0.1,0,0.1,0,0.2,0.1c0.1,0.1,0.1,0.1,0.1,0.2l-0.1,1
			C9.6,52.3,9.6,52.4,9.5,52.4z"/>
		<path class="st0" d="M11,41.9c-0.1,0-0.1,0-0.2,0l-7.6-2c-0.1,0-0.1-0.1-0.2-0.1c0-0.1,0-0.1,0-0.2l0.3-1.1c0-0.1,0.1-0.1,0.1-0.2
			c0.1,0,0.1,0,0.2,0l7.6,2c0.1,0,0.1,0.1,0.2,0.1c0,0.1,0,0.1,0,0.2l-0.3,1.1C11.1,41.8,11,41.9,11,41.9z"/>
		<path class="st0" d="M12.2,37.6c-0.1,0-0.1,0-0.2,0l-7.1-3.2c-0.1,0-0.1-0.1-0.2-0.2c0-0.1,0-0.1,0-0.2l1.3-2.8
			c0.4-0.9,0.9-1.5,1.6-1.8s1.3-0.3,2.1,0c0.5,0.2,0.9,0.6,1.2,1c0.2,0.4,0.3,0.9,0.3,1.4l3.5-0.3c0.1,0,0.1,0,0.1,0
			c0.1,0,0.1,0.1,0.1,0.1c0,0.1,0,0.1,0,0.2l-0.5,1c-0.1,0.1-0.1,0.2-0.2,0.2c-0.1,0-0.2,0.1-0.3,0.1l-3.2,0.2L10,34.9l2.6,1.2
			c0.1,0,0.1,0.1,0.2,0.2c0,0.1,0,0.2,0,0.2l-0.5,1C12.3,37.5,12.2,37.6,12.2,37.6z M9.4,32.8c0.2-0.4,0.2-0.8,0.2-1.1
			c-0.1-0.3-0.3-0.5-0.7-0.7s-0.7-0.2-1-0.1c-0.3,0.1-0.5,0.4-0.7,0.9l-0.7,1.5l2.3,1L9.4,32.8z"/>
		<path class="st0" d="M10.2,22.3c-0.1,0-0.1-0.1-0.1-0.1l-0.4-1.5c0-0.1,0-0.2,0-0.3c0-0.1,0-0.1,0.1-0.2l0.8-1
			c0-0.1,0.1-0.1,0.2-0.1c0.1,0,0.1,0,0.2,0.1c0,0,0.1,0.1,0.1,0.1l0.1,1.9c0,0.1,0,0.2,0,0.2c0,0.1-0.1,0.1-0.1,0.2l-0.5,0.7
			C10.3,22.3,10.3,22.3,10.2,22.3z M15.6,30.2c-0.1,0-0.1,0-0.2,0l-0.1-0.1l-4.5-6.9c-0.1-0.2-0.1-0.4,0-0.5l0.8-1.1
			c0.1-0.2,0.3-0.2,0.5-0.2l7.9,2.3l0.1,0c0.1,0,0.1,0.1,0.1,0.2s0,0.1,0,0.2L19.6,25c-0.1,0.1-0.2,0.2-0.4,0.1l-1.5-0.4l-2.1,2.9
			l0.8,1.3c0.1,0.1,0.1,0.3,0,0.4l-0.6,0.9C15.7,30.2,15.7,30.2,15.6,30.2z M14.7,26.4l1.6-2.2l-3.8-1.1L14.7,26.4z"/>
		<path class="st0" d="M24.3,20c-0.1,0-0.1,0-0.2-0.1l-4.7-6.2c-0.1-0.1-0.1-0.1-0.1-0.2c0-0.1,0-0.1,0.1-0.2l4.2-3.2
			c0.1-0.1,0.1-0.1,0.2-0.1s0.1,0.1,0.2,0.1l0.5,0.6c0.1,0.1,0.1,0.1,0.1,0.2c0,0.1-0.1,0.1-0.1,0.2l-3.1,2.4l1.3,1.7l2.9-2.2
			c0.1-0.1,0.1-0.1,0.2-0.1c0.1,0,0.1,0.1,0.2,0.1l0.5,0.6c0.1,0.1,0.1,0.1,0.1,0.2c0,0.1-0.1,0.1-0.1,0.2l-2.9,2.2l1.3,1.7l3.2-2.5
			c0.1-0.1,0.1-0.1,0.2-0.1c0.1,0,0.1,0,0.2,0.1l0.5,0.6c0.1,0.1,0.1,0.1,0.1,0.2c0,0.1-0.1,0.1-0.1,0.2L24.5,20
			C24.4,20,24.4,20,24.3,20z"/>
		<path class="st0" d="M31.1,15.2c-0.1,0-0.1-0.1-0.2-0.1l-3.5-7c0-0.1,0-0.2,0-0.2c0-0.1,0.1-0.1,0.1-0.2l1-0.5c0.1,0,0.2,0,0.2,0
			c0.1,0,0.1,0.1,0.2,0.2l3,6l3.4-1.7c0.1,0,0.2,0,0.2,0s0.1,0.1,0.2,0.1l0.4,0.8c0,0.1,0,0.1,0,0.2c0,0.1-0.1,0.1-0.2,0.2l-4.7,2.3
			C31.2,15.2,31.1,15.2,31.1,15.2z"/>
		<path class="st0" d="M43,10.4l-4-7.1c0,0,0-0.1,0-0.1c0-0.1,0-0.1,0-0.2c0-0.1,0.1-0.1,0.2-0.1l1-0.2c0.1,0,0.2,0,0.3,0
			c0.1,0,0.1,0.1,0.2,0.2l3.1,5.6l0.8-6.4c0-0.1,0-0.1,0.1-0.2c0.1-0.1,0.1-0.1,0.2-0.1L46,1.6c0.1,0,0.1,0,0.2,0
			c0.1,0,0.1,0.1,0.1,0.2l0,0.1l-1,8c0,0.2-0.2,0.4-0.4,0.4l-1.3,0.3C43.3,10.7,43.1,10.6,43,10.4z"/>
		<path class="st0" d="M50.1,9.7C50,9.6,50,9.6,50,9.5l-0.3-7.8c0-0.1,0-0.2,0.1-0.2c0.1-0.1,0.1-0.1,0.2-0.1l1.2,0
			c0.1,0,0.2,0,0.2,0.1c0.1,0.1,0.1,0.1,0.1,0.2l0.3,7.8c0,0.1,0,0.1-0.1,0.2c-0.1,0.1-0.1,0.1-0.2,0.1l-1.2,0
			C50.2,9.8,50.1,9.7,50.1,9.7z"/>
		<path class="st0" d="M54.6,9.6c0-0.1-0.1-0.1-0.1-0.2l1-7.8c0-0.1,0-0.2,0.1-0.2c0.1,0,0.1-0.1,0.2-0.1l2.9,0.4
			C61,2,62.1,3.2,61.9,5.4c0,0.5-0.1,0.8-0.1,0.9c0,0.2-0.1,0.5-0.1,0.9c-0.2,1.1-0.6,1.9-1.2,2.3c-0.6,0.5-1.5,0.6-2.7,0.5l-3-0.4
			C54.7,9.7,54.6,9.6,54.6,9.6z M57.8,8.7c0.7,0.1,1.2,0,1.5-0.3C59.6,8.1,59.9,7.7,60,7c0.1-0.5,0.1-0.8,0.1-0.9
			c0-0.1,0-0.4,0.1-0.9c0.1-0.7,0-1.2-0.3-1.5c-0.3-0.3-0.7-0.6-1.4-0.6L57,2.9l-0.7,5.6L57.8,8.7z"/>
		<path class="st0" d="M63.7,11.1c0-0.1,0-0.1,0-0.2l2.5-7.4c0-0.1,0.1-0.1,0.1-0.2c0.1,0,0.1,0,0.2,0l5,1.7c0.1,0,0.1,0.1,0.2,0.1
			c0,0.1,0,0.1,0,0.2l-0.3,0.8c0,0.1-0.1,0.1-0.1,0.2c-0.1,0-0.1,0-0.2,0L67.4,5l-0.7,2l3.5,1.2c0.1,0,0.1,0.1,0.2,0.1
			c0,0.1,0,0.1,0,0.2l-0.2,0.7c0,0.1-0.1,0.1-0.1,0.2c-0.1,0-0.1,0-0.2,0l-3.5-1.2l-0.7,2.1l3.8,1.3c0.1,0,0.1,0.1,0.2,0.1
			c0,0.1,0,0.1,0,0.2l-0.3,0.8c0,0.1-0.1,0.1-0.1,0.2c-0.1,0-0.1,0-0.2,0l-5.1-1.8C63.8,11.2,63.7,11.1,63.7,11.1z"/>
		<path class="st0" d="M72.2,13.7c-0.2-0.8-0.1-1.7,0.4-2.6c0.1-0.2,0.3-0.5,0.5-0.9c0.2-0.4,0.4-0.7,0.5-0.9
			c0.6-0.9,1.3-1.4,2.1-1.6c0.8-0.2,1.7,0,2.6,0.6c0.9,0.5,1.5,1.2,1.7,2s0.1,1.7-0.4,2.6c-0.2,0.4-0.4,0.7-0.5,0.9
			c-0.1,0.2-0.3,0.5-0.5,0.9c-0.6,0.9-1.3,1.5-2.1,1.6c-0.8,0.2-1.7,0-2.6-0.6C73,15.2,72.4,14.5,72.2,13.7z M76,14.8
			c0.4-0.1,0.8-0.5,1.2-1c0.3-0.4,0.4-0.7,0.5-0.8c0.1-0.2,0.3-0.4,0.5-0.8c0.3-0.6,0.4-1.1,0.3-1.5c-0.1-0.4-0.4-0.8-0.8-1.1
			c-0.5-0.3-0.9-0.3-1.3-0.2c-0.4,0.1-0.8,0.5-1.2,1c-0.1,0.2-0.3,0.5-0.5,0.8c-0.2,0.4-0.4,0.6-0.5,0.8c-0.3,0.6-0.4,1.1-0.3,1.5
			c0.1,0.4,0.4,0.8,0.9,1.1C75.2,14.8,75.6,14.9,76,14.8z"/>
	</g>
</g>
</svg>
