<svg xmlns="http://www.w3.org/2000/svg" viewBox="0 0 193.43 69.86"><defs><style>.cls-1{fill:#fff;}.cls-2{fill:#00bc7c;}.cls-3{fill:#d9d961;}.cls-4{fill:#6e40ad;}.cls-5{fill:none;stroke:#fff;stroke-miterlimit:10;stroke-width:0.6px;stroke-dasharray:2.43 2.02;}</style></defs><title>logo-footer</title><g id="Capa_2" data-name="Capa 2"><g id="Capa_1-2" data-name="Capa 1"><path class="cls-1" d="M192.88,45.18l-5.56-8.88L192,28.06a3.43,3.43,0,0,0,.43-1.72,3.34,3.34,0,0,0-3.35-3.27H189l-7,.17a4,4,0,0,0-3,1.3,3.92,3.92,0,0,0-.72-.62,3.32,3.32,0,0,0-1.89-.55h-.05l-5.89.14a3.8,3.8,0,0,0-2.05.62A3.56,3.56,0,0,0,167.1,26a11.55,11.55,0,0,0-3.21-1.63,17.92,17.92,0,0,0-5.61-.86h-.51a14.72,14.72,0,0,0-9,2.91,9.61,9.61,0,0,0-2.72,3.31l-.94-2.48a4.29,4.29,0,0,0-1.25-1.83,4,4,0,0,0-2.63-.93h-.12l-6.82.16a3.93,3.93,0,0,0-2.7,1.07,4.22,4.22,0,0,0-1.16,1.88l-.67,2.08a8.78,8.78,0,0,0-3.11-4.45c-2.11-1.58-5-2.34-9-2.34h-.41l-12.23.16a3.67,3.67,0,0,0-3.27,2.15,3.82,3.82,0,0,0-.68-.06l-6,.06a3.74,3.74,0,0,0-2.41.84,3.54,3.54,0,0,0-1.13,1.82,3.53,3.53,0,0,0-.93-1.59,3.49,3.49,0,0,0-2.45-1l-3.68,0,0-.76a3.92,3.92,0,0,0-4-4.19L46.46,21a3.93,3.93,0,0,0-3.83,4.23l.13,1.64a4.19,4.19,0,0,0-1.89-.43L34,26.54a3.92,3.92,0,0,0-2.72,1,4.17,4.17,0,0,0-1.19,1.86l-.89,2.62a10.14,10.14,0,0,0-1.54-2.54,12.84,12.84,0,0,0-5.7-3.9,20.57,20.57,0,0,0-6.91-1.13H15a16.89,16.89,0,0,0-10.36,3.1C1.74,29.76.2,33,0,37.08c0,.72,0,1.83,0,3.41s0,2.64.05,3.36c.2,4.2,1.75,7.41,4.6,9.52,2.63,2,6.11,3,10.34,3h.1a20.79,20.79,0,0,0,7-1.18,13.28,13.28,0,0,0,3-1.52,3.42,3.42,0,0,0,1.38.3l5.84-.06A3.78,3.78,0,0,0,36,51.29l.12-.32,3,0,.12.32a3.78,3.78,0,0,0,3.7,2.5l4,0a4.47,4.47,0,0,0,2.7,1.88L63,58.67a3.8,3.8,0,0,0,.95.11,3.88,3.88,0,0,0,1.07-.14l13.24-3.45a4.49,4.49,0,0,0,3-2.66,3.42,3.42,0,0,0,.9.12l6-.06a3.72,3.72,0,0,0,2.42-.84,3.54,3.54,0,0,0,1.13-1.82,3.39,3.39,0,0,0,.93,1.59,3.48,3.48,0,0,0,2.45,1l6.19-.06a3.61,3.61,0,0,0,.93-.14,3.61,3.61,0,0,0,.61.8,3.65,3.65,0,0,0,2.55,1L118.06,54a16.65,16.65,0,0,0,8.23-1.94,3.15,3.15,0,0,0,.81.1h.05L133,52a3.79,3.79,0,0,0,3.66-2.62l.11-.33,3-.07.12.31a3.79,3.79,0,0,0,3.67,2.46h.12l5.81-.14a3.33,3.33,0,0,0,2.34-1l.09-.1a16.8,16.8,0,0,0,5.93,1h.56a18,18,0,0,0,6.07-1.15,11.87,11.87,0,0,0,3.15-1.79,3.31,3.31,0,0,0,.87,1.32,3.46,3.46,0,0,0,2.41,1H171l6-.15a3.48,3.48,0,0,0,2.45-1.09,3.19,3.19,0,0,0,.33-.4,4.13,4.13,0,0,0,.73.64,3.93,3.93,0,0,0,2.34.71H183l7-.17a3.51,3.51,0,0,0,2-.63,3.32,3.32,0,0,0,1.39-2.8A3.18,3.18,0,0,0,192.88,45.18Z"/><path class="cls-2" d="M58.48,3a49.46,49.46,0,0,0-3.33,6.86L51.51,9a1.62,1.62,0,0,0-1.7.85c-2.42,5.6-3.21,10.9-2.23,16.12s3.68,10.29,8,15.61a1.55,1.55,0,0,0,1,.55l13.94,1.34A1.5,1.5,0,0,0,71.84,41c-.43-.49-.83-1-1.21-1.47l2.43.24a1.75,1.75,0,0,0,1.31-2.43c-.87-3.37.24-7.18,1.47-10.15,2-4.84,5.75-9.72,11-11.7a1.58,1.58,0,0,0,.59-2.41L76.35.49A1.55,1.55,0,0,0,74.41.23,37.75,37.75,0,0,0,67.91,6L60.42,2.41a1.83,1.83,0,0,0-1.94.6Zm1.94,2.73,12.14,5.81a30.62,30.62,0,0,0-5,12.42,19.3,19.3,0,0,0,2.72,12.52l-1.86-.17a20.59,20.59,0,0,1-2.87-8.22c-.48-4.24.52-8.58,2.9-13.22a1.58,1.58,0,0,0-1-2.14l-9.29-2.17a44.47,44.47,0,0,1,2.28-4.83Zm-8.28,6.5,12.84,3a25.15,25.15,0,0,0-2.45,13.19A25,25,0,0,0,67.4,40.17l-9.83-1c-3.89-4.87-6.21-9.35-7-13.78A23.42,23.42,0,0,1,52.14,12.24ZM75.05,3.55l8.84,10C78.63,16.26,75.1,21.23,73.08,26a28,28,0,0,0-1.78,6,15.82,15.82,0,0,1-.8-7.63c.56-4.28,2.69-8.58,5.46-12.59a1.58,1.58,0,0,0-.58-2.21L70.81,7.38a39.88,39.88,0,0,1,4.24-3.83Z"/><path class="cls-3" d="M60.42,5.74l12.14,5.81a30.62,30.62,0,0,0-5,12.42,19.3,19.3,0,0,0,2.72,12.52l-1.86-.17a20.59,20.59,0,0,1-2.87-8.22c-.48-4.24.52-8.58,2.9-13.22a1.58,1.58,0,0,0-1-2.14l-9.29-2.17a44.47,44.47,0,0,1,2.28-4.83Z"/><path class="cls-3" d="M52.14,12.24l12.84,3a25.15,25.15,0,0,0-2.45,13.19A25,25,0,0,0,67.4,40.17l-9.83-1c-3.89-4.87-6.21-9.35-7-13.78A23.42,23.42,0,0,1,52.14,12.24Z"/><path class="cls-3" d="M75.05,3.55l8.84,10C78.63,16.26,75.1,21.23,73.08,26a28,28,0,0,0-1.78,6,15.82,15.82,0,0,1-.8-7.63c.56-4.28,2.69-8.58,5.46-12.59a1.58,1.58,0,0,0-.58-2.21L70.81,7.38a39.88,39.88,0,0,1,4.24-3.83Z"/><path class="cls-2" d="M6.23,51.17C4,49.54,2.87,47,2.71,43.65c0-.66,0-1.74,0-3.24s0-2.63,0-3.32a9.32,9.32,0,0,1,3.55-7.47A14.19,14.19,0,0,1,15,27.07a18.11,18.11,0,0,1,6.1,1,10.23,10.23,0,0,1,4.54,3.1,8.23,8.23,0,0,1,1.8,5.31.83.83,0,0,1-.23.58.78.78,0,0,1-.58.24l-7.51,0a1.35,1.35,0,0,1-.86-.21,1.88,1.88,0,0,1-.51-.85,3,3,0,0,0-1.07-1.54A3,3,0,0,0,15,34.25a2.7,2.7,0,0,0-2,.69,3.21,3.21,0,0,0-.73,2.3q0,1,0,3.06c0,1.38,0,2.42,0,3.13a3.23,3.23,0,0,0,.75,2.3,2.74,2.74,0,0,0,2,.68,2.67,2.67,0,0,0,2.75-2,1.71,1.71,0,0,1,.46-.85,1.48,1.48,0,0,1,.9-.23l7.52,0a.81.81,0,0,1,.57.23.78.78,0,0,1,.24.57,8.24,8.24,0,0,1-1.77,5.33,10.17,10.17,0,0,1-4.52,3.13,18,18,0,0,1-6.09,1C11.37,53.6,8.42,52.8,6.23,51.17Z"/><path class="cls-2" d="M26,51a.67.67,0,0,1-.21-.49.78.78,0,0,1,0-.22l6.82-20.11a1.67,1.67,0,0,1,.47-.73,1.37,1.37,0,0,1,.94-.32l6.81-.06a1.41,1.41,0,0,1,.95.3,1.69,1.69,0,0,1,.48.72l7.19,20a.78.78,0,0,1,0,.22.64.64,0,0,1-.2.49.63.63,0,0,1-.48.21L43,51a1.18,1.18,0,0,1-1.23-.78L41,48.19l-6.76.07-.73,2.08a1.17,1.17,0,0,1-1.22.79l-5.81.06A.7.7,0,0,1,26,51Zm9.8-8.87,3.55,0-1.85-5.83Z"/><path class="cls-2" d="M81.6,49.69a.78.78,0,0,1-.25-.61l-.2-20.29a.82.82,0,0,1,.25-.6.79.79,0,0,1,.59-.26l6.16-.06a.82.82,0,0,1,.6.25.83.83,0,0,1,.26.59l.06,6.6,5.09-.05-.06-6.6a.77.77,0,0,1,.24-.6.85.85,0,0,1,.6-.26l6.15-.06a.82.82,0,0,1,.6.25.8.8,0,0,1,.26.59l.2,20.3a.82.82,0,0,1-.25.6.79.79,0,0,1-.59.26l-6.16.06a.82.82,0,0,1-.6-.25.79.79,0,0,1-.26-.59l-.06-6.79-5.09,0L89.2,49a.85.85,0,0,1-.24.6.82.82,0,0,1-.6.25l-6.16.06A.8.8,0,0,1,81.6,49.69Z"/><path class="cls-4" d="M104.73,51.15a.92.92,0,0,1-.3-.69l-.32-23.79a1,1,0,0,1,1-1l12.23-.16q5.22-.08,7.74,1.81a6.87,6.87,0,0,1,2.56,5.78,4.56,4.56,0,0,1-.88,2.83,6,6,0,0,1-2,1.82,5.49,5.49,0,0,1,2.51,2A5.73,5.73,0,0,1,128.31,43c0,2.73-.82,4.77-2.57,6.13s-4.32,2.07-7.71,2.11l-12.6.17A.94.94,0,0,1,104.73,51.15Zm11.79-16a1.3,1.3,0,0,0,1.12-.51,1.81,1.81,0,0,0,.37-1.16,1.89,1.89,0,0,0-.4-1.18,1.33,1.33,0,0,0-1.13-.5l-3.09,0,0,3.36ZM117,45a1.52,1.52,0,0,0,1.26-.57,2,2,0,0,0,.41-1.26,1.92,1.92,0,0,0-.48-1.24,1.5,1.5,0,0,0-1.24-.54l-3.43,0,0,3.6Z"/><path class="cls-4" d="M126.63,49.24a.64.64,0,0,1-.21-.48.5.5,0,0,1,0-.22L133,28.33a1.6,1.6,0,0,1,.45-.74,1.39,1.39,0,0,1,.94-.33l6.81-.17a1.31,1.31,0,0,1,1,.3,1.55,1.55,0,0,1,.49.71L150.1,48a.73.73,0,0,1,0,.22.65.65,0,0,1-.19.49.68.68,0,0,1-.48.22l-5.81.14a1.18,1.18,0,0,1-1.25-.76l-.8-2.06-6.76.17-.7,2.09a1.16,1.16,0,0,1-1.21.81l-5.81.14A.65.65,0,0,1,126.63,49.24Zm9.67-9,3.55-.08-1.93-5.8Z"/><path class="cls-4" d="M150.79,46.83c-1.9-1.35-2.94-3.47-3.14-6.36,0-.56-.06-1.48-.1-2.76s0-2.24,0-2.83a7.94,7.94,0,0,1,2.89-6.43,12.1,12.1,0,0,1,7.43-2.33,15.21,15.21,0,0,1,5.22.72A8.69,8.69,0,0,1,167,29.4a7,7,0,0,1,1.64,4.51.67.67,0,0,1-.2.49.63.63,0,0,1-.48.21l-6.41.16a1.18,1.18,0,0,1-.74-.17,1.62,1.62,0,0,1-.44-.72,2.62,2.62,0,0,0-.94-1.29,2.55,2.55,0,0,0-1.46-.35,2.33,2.33,0,0,0-1.68.63,2.73,2.73,0,0,0-.58,2q0,.85,0,2.61c0,1.18.06,2.06.1,2.67a2.75,2.75,0,0,0,.67,2,2.32,2.32,0,0,0,1.71.54,2.28,2.28,0,0,0,2.32-1.75,1.41,1.41,0,0,1,.37-.73,1.26,1.26,0,0,1,.77-.21l6.41-.15a.66.66,0,0,1,.49.19.63.63,0,0,1,.21.48A7,7,0,0,1,167.36,45a8.78,8.78,0,0,1-3.8,2.74,15.1,15.1,0,0,1-5.18,1A12.36,12.36,0,0,1,150.79,46.83Z"/><path class="cls-4" d="M170.36,47.85a.79.79,0,0,1-.26-.59L169.61,27a.84.84,0,0,1,.24-.61.79.79,0,0,1,.59-.26l6-.14a.8.8,0,0,1,.6.23.86.86,0,0,1,.27.59l.15,6.22,3.39-6.46a1.33,1.33,0,0,1,1.24-.72l6.94-.17a.68.68,0,0,1,.5.2.63.63,0,0,1,.21.48.6.6,0,0,1-.08.35l-5.43,9.62,6.44,10.28a.57.57,0,0,1,.1.34.7.7,0,0,1-.68.71l-7.16.17a1.38,1.38,0,0,1-.85-.21,1.33,1.33,0,0,1-.45-.48l-4-6.76.16,6.73a.77.77,0,0,1-.24.6.79.79,0,0,1-.59.26l-6,.15A.85.85,0,0,1,170.36,47.85Z"/><path class="cls-4" d="M77.62,52.55,64.38,56a1.51,1.51,0,0,1-.76,0L50.29,53a1.85,1.85,0,0,1-1.38-1.52L45.27,25.61a1.89,1.89,0,0,1,1.64-2.33l33.21-.49a1.89,1.89,0,0,1,1.71,2.28L79,51A1.86,1.86,0,0,1,77.62,52.55Z"/><path class="cls-1" d="M61.72,51.45a.71.71,0,0,1-.23-.51l0-1.85a8.42,8.42,0,0,1-4.77-1.91,5,5,0,0,1-1.76-3.56.57.57,0,0,1,.17-.42.62.62,0,0,1,.41-.18L60.63,43a1.48,1.48,0,0,1,.6.08,2.31,2.31,0,0,1,.56.36,3.12,3.12,0,0,0,2,.59,4.33,4.33,0,0,0,1.46-.23c.37-.14.55-.32.55-.55s-.25-.57-.74-.73A15.38,15.38,0,0,0,62.3,42q-6.93-.81-7-5.8a5.29,5.29,0,0,1,1.57-3.92,8,8,0,0,1,4.33-2.16l0-1.88a.71.71,0,0,1,.21-.51.67.67,0,0,1,.51-.22l3.24,0a.73.73,0,0,1,.52.21.7.7,0,0,1,.22.5l0,2A9.2,9.2,0,0,1,69,31.32a7,7,0,0,1,2.07,1.93,4.18,4.18,0,0,1,.79,2.07.57.57,0,0,1-.17.42.59.59,0,0,1-.38.18L66,36a1.45,1.45,0,0,1-.6-.08,1.88,1.88,0,0,1-.48-.33,2.11,2.11,0,0,0-1.44-.46c-.85,0-1.28.27-1.27.77,0,.27.21.49.64.66a10.43,10.43,0,0,0,2.35.45,16.69,16.69,0,0,1,4.33,1,5,5,0,0,1,2.39,1.84,5.43,5.43,0,0,1,.78,2.92,5.18,5.18,0,0,1-1.75,4.07A9.2,9.2,0,0,1,66.17,49l0,1.88a.65.65,0,0,1-.2.51.73.73,0,0,1-.51.23l-3.25,0A.65.65,0,0,1,61.72,51.45Z"/><path class="cls-5" d="M76.29,51.44l-12,3.14a1.31,1.31,0,0,1-.68,0L51.58,51.8a1.65,1.65,0,0,1-1.23-1.38L47.29,27.28a1.67,1.67,0,0,1,1.48-2.05l29.55-.44a1.68,1.68,0,0,1,1.54,2L77.48,50A1.65,1.65,0,0,1,76.29,51.44Z"/><g id="_Grupo_" data-name="&lt;Grupo&gt;"><path id="_Trazado_compuesto_" data-name="&lt;Trazado compuesto&gt;" class="cls-4" d="M106.34,61.5l-.06-2,7.25-.24.07,2-4.33,5.36,4.66-.16.07,2-7.74.26-.06-1.87,4.37-5.5Z"/><path id="_Trazado_compuesto_2" data-name="&lt;Trazado compuesto&gt;" class="cls-4" d="M122.91,67.05a5.06,5.06,0,0,1-7,.24,5.7,5.7,0,0,1-.23-6.9,5,5,0,0,1,7.05-.23,5.68,5.68,0,0,1,.23,6.89Zm-2-1.26a3.49,3.49,0,0,0,.49-2.15,3.45,3.45,0,0,0-.63-2.1,1.93,1.93,0,0,0-1.64-.69,1.9,1.9,0,0,0-1.6.8,3.46,3.46,0,0,0-.5,2.14,3.51,3.51,0,0,0,.64,2.11,1.93,1.93,0,0,0,1.65.69A1.9,1.9,0,0,0,121,65.79Z"/><path id="_Trazado_compuesto_3" data-name="&lt;Trazado compuesto&gt;" class="cls-4" d="M132.51,59.19a3,3,0,0,1,1,2.45l.2,6.18-2.46.08-.18-5.58a2.71,2.71,0,0,0-.23-1.11,1.36,1.36,0,0,0-1.36-.66,1.65,1.65,0,0,0-1.63,1.09,3.44,3.44,0,0,0-.19,1.4l.17,5-2.4.08-.31-9.16,2.32-.08,0,1.34a4.07,4.07,0,0,1,.84-1,3,3,0,0,1,1.85-.61A3.51,3.51,0,0,1,132.51,59.19Z"/><path id="_Trazado_compuesto_4" data-name="&lt;Trazado compuesto&gt;" class="cls-4" d="M139,62.05a3.73,3.73,0,0,0,1-.24.73.73,0,0,0,.5-.7.81.81,0,0,0-.42-.77,2.56,2.56,0,0,0-1.18-.17,1.52,1.52,0,0,0-1.2.46,1.72,1.72,0,0,0-.32.85l-2.31.08a3.44,3.44,0,0,1,.61-2,3.94,3.94,0,0,1,3.24-1.32,5.69,5.69,0,0,1,2.71.51A2.29,2.29,0,0,1,142.78,61l.14,4.21c0,.3,0,.65.05,1.06a1.27,1.27,0,0,0,.17.64.86.86,0,0,0,.36.27v.35l-2.61.09a3.47,3.47,0,0,1-.17-.52c0-.16-.06-.35-.08-.55a5.13,5.13,0,0,1-1.12.95,3.44,3.44,0,0,1-1.75.51,3.07,3.07,0,0,1-2.1-.65,2.51,2.51,0,0,1-.88-2A2.6,2.6,0,0,1,136,62.84a5.89,5.89,0,0,1,2.1-.66Zm1.51,1.07a2.6,2.6,0,0,1-.46.25,4.28,4.28,0,0,1-.64.19l-.54.11a3.45,3.45,0,0,0-1.09.37,1.1,1.1,0,0,0-.54,1,1.06,1.06,0,0,0,.38.87,1.3,1.3,0,0,0,.85.25,2.5,2.5,0,0,0,1.43-.5,1.91,1.91,0,0,0,.64-1.68Z"/><path id="_Trazado_compuesto_5" data-name="&lt;Trazado compuesto&gt;" class="cls-4" d="M147.11,67.37l-2.4.08-.38-11.66,2.4-.08Z"/><path id="_Trazado_compuesto_6" data-name="&lt;Trazado compuesto&gt;" class="cls-4" d="M152.47,61.6a3.84,3.84,0,0,0,1-.24.72.72,0,0,0,.49-.7.81.81,0,0,0-.42-.77,2.56,2.56,0,0,0-1.18-.17,1.52,1.52,0,0,0-1.2.46,1.72,1.72,0,0,0-.32.85l-2.31.08a3.49,3.49,0,0,1,.61-2,3.94,3.94,0,0,1,3.24-1.32,5.81,5.81,0,0,1,2.71.5,2.31,2.31,0,0,1,1.25,2.22l.14,4.21c0,.29,0,.65.05,1.06a1.38,1.38,0,0,0,.17.64.77.77,0,0,0,.36.26V67l-2.61.08a3,3,0,0,1-.17-.51c0-.16-.06-.35-.08-.56a5.17,5.17,0,0,1-1.12,1,3.65,3.65,0,0,1-1.75.51,3.09,3.09,0,0,1-2.1-.65,2.53,2.53,0,0,1-.88-2,2.6,2.6,0,0,1,1.23-2.49,5.89,5.89,0,0,1,2.1-.66ZM154,62.67a2.94,2.94,0,0,1-.46.25,4.46,4.46,0,0,1-.64.18l-.54.12a3.55,3.55,0,0,0-1.09.37,1.12,1.12,0,0,0-.54,1,1.06,1.06,0,0,0,.38.87,1.3,1.3,0,0,0,.85.25,2.61,2.61,0,0,0,1.44-.5,1.94,1.94,0,0,0,.63-1.69Z"/><path id="_Trazado_compuesto_7" data-name="&lt;Trazado compuesto&gt;" class="cls-4" d="M165.63,58.55A4.85,4.85,0,0,1,166.87,62a5.55,5.55,0,0,1-1,3.73,3.61,3.61,0,0,1-2.79,1.37,3,3,0,0,1-1.85-.49,3.57,3.57,0,0,1-.81-.86l.14,4-2.38.08-.4-12,2.3-.07,0,1.35a3.78,3.78,0,0,1,.79-1,3.12,3.12,0,0,1,1.9-.68A3.63,3.63,0,0,1,165.63,58.55Zm-1.78,1.78a1.74,1.74,0,0,0-1.62-.76,1.8,1.8,0,0,0-1.77,1.3,4.83,4.83,0,0,0-.2,1.68,2.67,2.67,0,0,0,.94,2.22,1.92,1.92,0,0,0,1.22.33,1.73,1.73,0,0,0,1.51-.82,3.55,3.55,0,0,0,.47-2.08A3.73,3.73,0,0,0,163.85,60.33Z"/><path id="_Trazado_compuesto_8" data-name="&lt;Trazado compuesto&gt;" class="cls-4" d="M167.1,59.31,167,57.6l1.28,0-.06-1.81,2.38-.08.06,1.81,1.49,0,.05,1.71-1.49,0,.17,4.85c0,.37.06.6.16.69a1.53,1.53,0,0,0,.88.11h.23l.24,0,.06,1.8-1.13.08a3.09,3.09,0,0,1-2.35-.52,1.77,1.77,0,0,1-.44-1.25l-.19-5.66Z"/><path id="_Trazado_compuesto_9" data-name="&lt;Trazado compuesto&gt;" class="cls-4" d="M181.22,65.11a5.06,5.06,0,0,1-7.06.23,5.68,5.68,0,0,1-.23-6.89,4.22,4.22,0,0,1,3.48-1.58A4.27,4.27,0,0,1,181,58.21a5.73,5.73,0,0,1,.23,6.9Zm-2-1.27a3.46,3.46,0,0,0,.5-2.14,3.51,3.51,0,0,0-.64-2.11,1.92,1.92,0,0,0-1.64-.69,2,2,0,0,0-1.6.8A4.28,4.28,0,0,0,176,64a1.9,1.9,0,0,0,1.64.7A1.93,1.93,0,0,0,179.25,63.84Z"/><path id="_Trazado_compuesto_10" data-name="&lt;Trazado compuesto&gt;" class="cls-4" d="M191.15,57.69a4.88,4.88,0,0,1,1.24,3.45,5.56,5.56,0,0,1-1,3.74,3.6,3.6,0,0,1-2.79,1.36,2.93,2.93,0,0,1-1.85-.48,3.77,3.77,0,0,1-.81-.86l.14,4-2.38.08-.4-12,2.3-.08,0,1.36a4,4,0,0,1,.8-1,3.06,3.06,0,0,1,1.9-.68A3.64,3.64,0,0,1,191.15,57.69Zm-1.78,1.79a1.72,1.72,0,0,0-1.62-.76A1.8,1.8,0,0,0,186,60a4.8,4.8,0,0,0-.2,1.67,2.67,2.67,0,0,0,.93,2.22,2,2,0,0,0,1.23.34,1.75,1.75,0,0,0,1.51-.82,3.59,3.59,0,0,0,.47-2.09A3.72,3.72,0,0,0,189.37,59.48Z"/></g></g></g></svg>