<svg xmlns="http://www.w3.org/2000/svg" viewBox="0 0 346.5 125.15"><defs><style>.cls-1{fill:#fff;}.cls-2{fill:#00bc7c;}.cls-3{fill:#d9d961;}.cls-4{fill:#6e40ad;}.cls-5{fill:none;stroke:#fff;stroke-miterlimit:10;stroke-width:1.08px;stroke-dasharray:4.35 3.63;}</style></defs><title>logo-header</title><g id="Capa_2" data-name="Capa 2"><g id="Capa_1-2" data-name="Capa 1"><path class="cls-1" d="M345.52,80.93l-10-15.9,8.33-14.76a5.92,5.92,0,0,0,.77-3.09,6,6,0,0,0-6-5.85h-.09l-12.49.29a7.23,7.23,0,0,0-5.3,2.35,7.09,7.09,0,0,0-1.3-1.13,5.93,5.93,0,0,0-3.38-1H316l-10.54.25a6.6,6.6,0,0,0-3.67,1.11,6.36,6.36,0,0,0-2.45,3.38,21.47,21.47,0,0,0-5.75-2.92,32.22,32.22,0,0,0-10.06-1.54h-.9c-6.55.15-12,1.9-16.14,5.2a17.38,17.38,0,0,0-4.87,5.94L260,48.85a7.66,7.66,0,0,0-2.24-3.27A7.12,7.12,0,0,0,253,43.9h-.21l-12.21.29a7.05,7.05,0,0,0-4.84,1.91,7.64,7.64,0,0,0-2.08,3.37l-1.2,3.72a15.68,15.68,0,0,0-5.57-8c-3.77-2.83-9-4.2-16.06-4.2h-.72l-21.91.29a6.55,6.55,0,0,0-5.86,3.86,6.13,6.13,0,0,0-1.21-.12l-10.79.1A6.75,6.75,0,0,0,166,46.68a6.29,6.29,0,0,0-2,3.26,6.31,6.31,0,0,0-1.68-2.85,6.22,6.22,0,0,0-4.38-1.8l-6.59.07.09-1.36a7,7,0,0,0-7.14-7.51L83.23,37.68a7,7,0,0,0-6.86,7.56l.23,3a7.33,7.33,0,0,0-3.38-.78l-12.29.12a7,7,0,0,0-4.87,1.84,7.46,7.46,0,0,0-2.13,3.34l-1.6,4.7a18,18,0,0,0-2.76-4.56,23.13,23.13,0,0,0-10.21-7,37.23,37.23,0,0,0-12.37-2h-.16c-7.49,0-13.73,1.89-18.55,5.54C3.12,53.31.36,59,.05,66.42c0,1.29-.06,3.29,0,6.11s0,4.74.09,6c.36,7.53,3.13,13.28,8.24,17.07,4.71,3.49,10.94,5.26,18.53,5.26H27a37,37,0,0,0,12.52-2.1A24.43,24.43,0,0,0,45,96.05a5.93,5.93,0,0,0,2.47.54l10.47-.1a6.78,6.78,0,0,0,6.62-4.6l.21-.59,5.43,0,.22.57A6.78,6.78,0,0,0,77,96.31l7.18-.06A8,8,0,0,0,89,99.62l23.89,5.49a7.45,7.45,0,0,0,1.7.19,7.83,7.83,0,0,0,1.92-.24l23.71-6.2a8,8,0,0,0,5.38-4.75,6.26,6.26,0,0,0,1.62.21l10.79-.1a6.75,6.75,0,0,0,4.32-1.51,6.29,6.29,0,0,0,2-3.26,6.33,6.33,0,0,0,6.06,4.65l11.1-.11a6.1,6.1,0,0,0,1.65-.25,6.62,6.62,0,0,0,1.11,1.43A6.51,6.51,0,0,0,188.85,97l22.65-.31c6-.08,11-1.24,14.74-3.47a5.9,5.9,0,0,0,1.46.18h.08l10.47-.25a6.79,6.79,0,0,0,6.56-4.7l.2-.59,5.43-.13.22.56a6.77,6.77,0,0,0,6.57,4.4h.21l10.41-.25A5.94,5.94,0,0,0,272,90.62c.06-.05.11-.11.17-.17a30.13,30.13,0,0,0,10.62,1.75h1a32.38,32.38,0,0,0,10.88-2.06,21.14,21.14,0,0,0,5.63-3.21A6.3,6.3,0,0,0,306.22,91h.1l10.81-.26a6.24,6.24,0,0,0,4.39-2,6.63,6.63,0,0,0,.59-.72,8,8,0,0,0,1.3,1.15,7.07,7.07,0,0,0,4.19,1.27h.22l12.61-.3A6.3,6.3,0,0,0,344,89.09a6,6,0,0,0,2.5-5A5.75,5.75,0,0,0,345.52,80.93Z"/><path class="cls-2" d="M104.77,5.39a86.83,86.83,0,0,0-6,12.29l-6.51-1.53a2.91,2.91,0,0,0-3,1.53c-4.34,10-5.76,19.52-4,28.88s6.6,18.43,14.38,28a2.72,2.72,0,0,0,1.84,1l25,2.41a2.68,2.68,0,0,0,2.27-4.44c-.77-.88-1.48-1.76-2.16-2.63l4.35.43a3.15,3.15,0,0,0,2.35-4.35c-1.56-6.05.43-12.88,2.63-18.19,3.66-8.67,10.3-17.42,19.77-21a2.82,2.82,0,0,0,1.07-4.3L136.77.89a2.77,2.77,0,0,0-3.48-.48,68.84,68.84,0,0,0-11.64,10.32L108.24,4.32a3.26,3.26,0,0,0-3.47,1.07Zm3.47,4.89L130,20.69c-4.43,6.88-8,14.34-9,22.24a34.62,34.62,0,0,0,4.87,22.44l-3.32-.31a36.72,36.72,0,0,1-5.15-14.72c-.86-7.6.94-15.37,5.2-23.69a2.82,2.82,0,0,0-1.78-3.82l-16.64-3.9a83.51,83.51,0,0,1,4.09-8.65ZM93.4,21.92l23,5.39c-3.56,7.92-5.26,15.79-4.38,23.61.8,7.12,3.76,14.12,8.72,21l-17.61-1.71c-7-8.72-11.13-16.75-12.62-24.68C89.08,38,90.08,30.36,93.4,21.92Zm41-15.57,15.83,17.94c-9.41,4.84-15.74,13.73-19.36,22.32a50.18,50.18,0,0,0-3.18,10.71,28.26,28.26,0,0,1-1.44-13.67c1-7.66,4.82-15.36,9.79-22.55a2.82,2.82,0,0,0-1.05-4l-8.18-3.92a71,71,0,0,1,7.59-6.88Z"/><path class="cls-3" d="M108.24,10.28,130,20.69c-4.43,6.88-8,14.34-9,22.24a34.62,34.62,0,0,0,4.87,22.44l-3.32-.31a36.72,36.72,0,0,1-5.15-14.72c-.86-7.6.94-15.37,5.2-23.69a2.82,2.82,0,0,0-1.78-3.82l-16.64-3.9a83.51,83.51,0,0,1,4.09-8.65Z"/><path class="cls-3" d="M93.4,21.92l23,5.39c-3.56,7.92-5.26,15.79-4.38,23.61.8,7.12,3.76,14.12,8.72,21l-17.61-1.71c-7-8.72-11.13-16.75-12.62-24.68C89.08,38,90.08,30.36,93.4,21.92Z"/><path class="cls-3" d="M134.44,6.35l15.83,17.94c-9.41,4.84-15.74,13.73-19.36,22.32a50.18,50.18,0,0,0-3.18,10.71,28.26,28.26,0,0,1-1.44-13.67c1-7.66,4.82-15.36,9.79-22.55a2.82,2.82,0,0,0-1.05-4l-8.18-3.92a71,71,0,0,1,7.59-6.88Z"/><path class="cls-2" d="M11.16,91.67Q5.28,87.29,4.85,78.19c0-1.18-.08-3.12-.09-5.8s0-4.71,0-5.94q.36-8.84,6.35-13.38t15.69-4.58a32.4,32.4,0,0,1,10.92,1.74,18.3,18.3,0,0,1,8.14,5.55,14.75,14.75,0,0,1,3.23,9.52,1.45,1.45,0,0,1-1.44,1.46l-13.46,0a2.54,2.54,0,0,1-1.56-.39,3.38,3.38,0,0,1-.89-1.52,5.38,5.38,0,0,0-1.93-2.76,5.25,5.25,0,0,0-3-.78,4.86,4.86,0,0,0-3.56,1.23A5.83,5.83,0,0,0,22,66.72c0,1.19-.05,3,0,5.48s0,4.33.08,5.6a5.78,5.78,0,0,0,1.34,4.12,4.85,4.85,0,0,0,3.56,1.21,4.78,4.78,0,0,0,4.94-3.58A3,3,0,0,1,32.66,78a2.62,2.62,0,0,1,1.61-.4l13.46,0a1.4,1.4,0,0,1,1,.43,1.36,1.36,0,0,1,.43,1A14.74,14.74,0,0,1,46,88.57a18.2,18.2,0,0,1-8.09,5.61A32.38,32.38,0,0,1,27,96Q17,96,11.16,91.67Z"/><path class="cls-2" d="M46.56,91.34a1.17,1.17,0,0,1-.38-.87,1.48,1.48,0,0,1,0-.39l12.23-36a2.82,2.82,0,0,1,.83-1.3A2.43,2.43,0,0,1,61,52.17l12.22-.11a2.4,2.4,0,0,1,1.69.54,3,3,0,0,1,.86,1.29l12.88,35.8a1.14,1.14,0,0,1,.06.39,1.22,1.22,0,0,1-.36.88,1.19,1.19,0,0,1-.87.37L77,91.43A2.1,2.1,0,0,1,74.83,90l-1.39-3.7-12.1.11L60,90.17a2.09,2.09,0,0,1-2.19,1.43l-10.41.1A1.19,1.19,0,0,1,46.56,91.34Zm17.55-15.9,6.36,0L67.17,65Z"/><path class="cls-2" d="M146.19,89a1.43,1.43,0,0,1-.47-1.09l-.35-36.36A1.54,1.54,0,0,1,146.88,50l11-.1a1.42,1.42,0,0,1,1.07.44,1.4,1.4,0,0,1,.46,1.06l.12,11.82,9.12-.09-.12-11.82a1.54,1.54,0,0,1,1.51-1.53l11-.11a1.46,1.46,0,0,1,1.07.44,1.42,1.42,0,0,1,.46,1.07L183,87.57a1.5,1.5,0,0,1-.44,1.07,1.48,1.48,0,0,1-1.07.46l-11,.11a1.55,1.55,0,0,1-1.54-1.51l-.11-12.15-9.12.08.12,12.16a1.54,1.54,0,0,1-1.51,1.54l-11,.1A1.47,1.47,0,0,1,146.19,89Z"/><path class="cls-4" d="M187.61,91.64a1.73,1.73,0,0,1-.54-1.25l-.57-42.62a1.7,1.7,0,0,1,.51-1.26,1.67,1.67,0,0,1,1.25-.54l21.9-.3q9.38-.12,13.87,3.25t4.59,10.36A8.16,8.16,0,0,1,227,64.35a10.46,10.46,0,0,1-3.59,3.25A9.76,9.76,0,0,1,228,71.27a10.22,10.22,0,0,1,1.89,5.81q.09,7.33-4.61,11t-13.8,3.78l-22.57.3A1.78,1.78,0,0,1,187.61,91.64Zm21.13-28.59a2.41,2.41,0,0,0,2-.92,3.27,3.27,0,0,0,.67-2.09,3.42,3.42,0,0,0-.72-2.1,2.38,2.38,0,0,0-2-.9l-5.54.08.08,6Zm.83,17.47a2.66,2.66,0,0,0,2.26-1,3.57,3.57,0,0,0,.73-2.25,3.37,3.37,0,0,0-.85-2.23,2.69,2.69,0,0,0-2.23-1l-6.13.08.08,6.46Z"/><path class="cls-4" d="M226.85,88.21a1.21,1.21,0,0,1-.39-.87,1.15,1.15,0,0,1,0-.39l11.69-36.2a2.92,2.92,0,0,1,.81-1.32,2.4,2.4,0,0,1,1.68-.6l12.21-.29a2.38,2.38,0,0,1,1.7.52,2.85,2.85,0,0,1,.87,1.27l13.41,35.6a1.59,1.59,0,0,1,.07.4,1.23,1.23,0,0,1-.35.88,1.16,1.16,0,0,1-.86.38l-10.41.25a2.08,2.08,0,0,1-2.23-1.35l-1.44-3.68-12.1.29-1.26,3.74a2.1,2.1,0,0,1-2.16,1.46l-10.41.25A1.21,1.21,0,0,1,226.85,88.21Zm17.32-16.16,6.36-.15-3.46-10.39Z"/><path class="cls-4" d="M270.13,83.88Q265,80.27,264.5,72.5c-.06-1-.12-2.66-.17-5s-.08-4-.07-5.06q.17-7.55,5.19-11.53t13.3-4.17a27.64,27.64,0,0,1,9.35,1.29,15.68,15.68,0,0,1,7,4.59,12.65,12.65,0,0,1,2.92,8.07A1.26,1.26,0,0,1,300.85,62l-11.48.27A2.13,2.13,0,0,1,288,62a2.9,2.9,0,0,1-.79-1.28A4,4,0,0,0,283,57.76a4.15,4.15,0,0,0-3,1.12,5,5,0,0,0-1,3.54c0,1,0,2.57.06,4.67s.1,3.7.17,4.78a4.9,4.9,0,0,0,1.21,3.49,4.17,4.17,0,0,0,3.06,1,4.08,4.08,0,0,0,4.15-3.14,2.6,2.6,0,0,1,.67-1.31,2.27,2.27,0,0,1,1.37-.37l11.48-.27a1.17,1.17,0,0,1,.88.34,1.21,1.21,0,0,1,.39.86,12.59,12.59,0,0,1-2.54,8.2,15.58,15.58,0,0,1-6.8,4.92,27.49,27.49,0,0,1-9.28,1.74Q275.22,87.51,270.13,83.88Z"/><path class="cls-4" d="M305.18,85.72a1.47,1.47,0,0,1-.47-1.06l-.87-36.35a1.54,1.54,0,0,1,1.48-1.56l10.75-.25A1.54,1.54,0,0,1,317.63,48l.26,11.14L324,47.55a2.34,2.34,0,0,1,2.22-1.29l12.44-.3a1.22,1.22,0,0,1,.88.34,1.17,1.17,0,0,1,.38.87,1.12,1.12,0,0,1-.15.62L330,65l11.53,18.41a1,1,0,0,1,.18.62,1.17,1.17,0,0,1-.34.88,1.21,1.21,0,0,1-.87.39l-12.83.3a2.44,2.44,0,0,1-1.52-.38,2.48,2.48,0,0,1-.81-.86l-7.16-12.1.29,12A1.55,1.55,0,0,1,317,85.89l-10.75.26A1.53,1.53,0,0,1,305.18,85.72Z"/><path class="cls-4" d="M139,94.13l-23.72,6.19a2.8,2.8,0,0,1-1.35,0L90.08,94.85a3.27,3.27,0,0,1-2.46-2.71L81.1,45.87c-.31-2.23,1-4.14,2.93-4.17l59.5-.87c1.92,0,3.3,1.84,3.06,4.08l-5.17,46.44A3.25,3.25,0,0,1,139,94.13Z"/><path class="cls-1" d="M110.56,92.16a1.26,1.26,0,0,1-.4-.91l0-3.32q-5.53-.68-8.54-3.41a8.87,8.87,0,0,1-3.15-6.37,1.05,1.05,0,0,1,.3-.75,1,1,0,0,1,.74-.33l9.14-.13a2.84,2.84,0,0,1,1.09.15,4.11,4.11,0,0,1,1,.64,5.6,5.6,0,0,0,3.58,1,8,8,0,0,0,2.62-.4c.65-.25,1-.58,1-1,0-.58-.45-1-1.32-1.3a28.44,28.44,0,0,0-4.92-.87Q99.17,73.76,99,64.81a9.47,9.47,0,0,1,2.81-7,14.35,14.35,0,0,1,7.76-3.87l0-3.36a1.24,1.24,0,0,1,.38-.92,1.21,1.21,0,0,1,.9-.4l5.82-.09a1.27,1.27,0,0,1,.92.37,1.25,1.25,0,0,1,.4.91l0,3.51a16.1,16.1,0,0,1,5.64,2.16,12.44,12.44,0,0,1,3.71,3.46,7.55,7.55,0,0,1,1.42,3.71,1,1,0,0,1-.3.75,1,1,0,0,1-.69.32l-9.62.14a2.62,2.62,0,0,1-1.06-.15,3.64,3.64,0,0,1-.88-.59,3.73,3.73,0,0,0-2.56-.83c-1.54,0-2.3.48-2.29,1.38,0,.48.39.88,1.15,1.19a18.31,18.31,0,0,0,4.22.8A29.94,29.94,0,0,1,124.52,68a9,9,0,0,1,4.28,3.28,9.74,9.74,0,0,1,1.4,5.25,9.32,9.32,0,0,1-3.14,7.29,16.53,16.53,0,0,1-8.53,3.9l0,3.37a1.31,1.31,0,0,1-1.28,1.32l-5.82.08A1.24,1.24,0,0,1,110.56,92.16Z"/><path class="cls-5" d="M136.67,92.14l-21.45,5.64a2.52,2.52,0,0,1-1.22,0l-21.6-5a3,3,0,0,1-2.21-2.46L84.71,48.87c-.26-2,.94-3.66,2.65-3.68l53-.78c1.7,0,3,1.62,2.75,3.6l-4.26,41.6A3,3,0,0,1,136.67,92.14Z"/><g id="_Grupo_" data-name="&lt;Grupo&gt;"><path id="_Trazado_compuesto_" data-name="&lt;Trazado compuesto&gt;" class="cls-1" d="M190.5,110.17l-.12-3.5,13-.44.12,3.58-7.75,9.6,8.35-.28.12,3.53-13.86.47-.11-3.35,7.83-9.87Z"/><path id="_Trazado_compuesto_2" data-name="&lt;Trazado compuesto&gt;" class="cls-1" d="M220.19,120.12c-1.33,1.76-3.41,2.68-6.24,2.78s-5-.69-6.41-2.36a10.23,10.23,0,0,1-.41-12.35q2-2.68,6.24-2.82c2.82-.1,5,.7,6.4,2.4a10.21,10.21,0,0,1,.42,12.35Zm-3.52-2.26a6.25,6.25,0,0,0,.88-3.85,6.13,6.13,0,0,0-1.14-3.77,3.83,3.83,0,0,0-5.8.2,7.61,7.61,0,0,0,.26,7.61,3.82,3.82,0,0,0,5.8-.19Z"/><path id="_Trazado_compuesto_3" data-name="&lt;Trazado compuesto&gt;" class="cls-1" d="M237.38,106q1.67,1.27,1.77,4.37l.37,11.08-4.41.14-.33-10a4.73,4.73,0,0,0-.41-2,2.45,2.45,0,0,0-2.44-1.19,3,3,0,0,0-2.92,2,6.43,6.43,0,0,0-.34,2.52l.3,8.9-4.3.14-.55-16.41,4.17-.14.08,2.4a7.3,7.3,0,0,1,1.5-1.88,5.45,5.45,0,0,1,3.31-1.11A6.35,6.35,0,0,1,237.38,106Z"/><path id="_Trazado_compuesto_4" data-name="&lt;Trazado compuesto&gt;" class="cls-1" d="M248.92,111.16a6.48,6.48,0,0,0,1.7-.44,1.29,1.29,0,0,0,.89-1.25,1.45,1.45,0,0,0-.76-1.37,4.38,4.38,0,0,0-2.1-.31,2.74,2.74,0,0,0-2.16.82,3.12,3.12,0,0,0-.56,1.53l-4.15.14a6.34,6.34,0,0,1,1.09-3.59c1.1-1.48,3-2.27,5.81-2.36a10.42,10.42,0,0,1,4.85.91c1.43.66,2.18,2,2.25,4l.25,7.54c0,.52.05,1.16.09,1.9a2.39,2.39,0,0,0,.3,1.14,1.52,1.52,0,0,0,.65.48l0,.63-4.68.16a5,5,0,0,1-.3-.93c-.06-.29-.11-.62-.16-1a8.92,8.92,0,0,1-2,1.71,6.33,6.33,0,0,1-3.13.91,5.46,5.46,0,0,1-3.76-1.16,4.52,4.52,0,0,1-1.58-3.56,4.69,4.69,0,0,1,2.21-4.47,10.59,10.59,0,0,1,3.76-1.18Zm2.7,1.92a4.69,4.69,0,0,1-.82.44,6.11,6.11,0,0,1-1.15.33l-1,.22a6.57,6.57,0,0,0-2,.65,2,2,0,0,0-.95,1.86,1.91,1.91,0,0,0,.67,1.57,2.37,2.37,0,0,0,1.53.44,4.44,4.44,0,0,0,2.56-.9,3.42,3.42,0,0,0,1.14-3Z"/><path id="_Trazado_compuesto_5" data-name="&lt;Trazado compuesto&gt;" class="cls-1" d="M263.54,120.68l-4.3.15-.7-20.88,4.3-.14Z"/><path id="_Trazado_compuesto_6" data-name="&lt;Trazado compuesto&gt;" class="cls-1" d="M273.14,110.35a7.11,7.11,0,0,0,1.71-.43,1.31,1.31,0,0,0,.88-1.26,1.43,1.43,0,0,0-.76-1.37,4.51,4.51,0,0,0-2.1-.31,2.74,2.74,0,0,0-2.16.82,3.2,3.2,0,0,0-.56,1.53l-4.15.14a6.29,6.29,0,0,1,1.1-3.58q1.63-2.23,5.8-2.37a10.48,10.48,0,0,1,4.86.91c1.42.66,2.17,2,2.24,4l.25,7.54c0,.53.05,1.16.09,1.9a2.39,2.39,0,0,0,.3,1.14,1.44,1.44,0,0,0,.65.48l0,.63-4.68.16a5,5,0,0,1-.3-.93q-.09-.43-.15-1a9.2,9.2,0,0,1-2,1.71A6.23,6.23,0,0,1,271,121a5.51,5.51,0,0,1-3.76-1.15,4.56,4.56,0,0,1-1.58-3.57,4.69,4.69,0,0,1,2.21-4.47,10.59,10.59,0,0,1,3.76-1.18Zm2.7,1.92a4.69,4.69,0,0,1-.82.44,6.11,6.11,0,0,1-1.15.33l-1,.22a6.68,6.68,0,0,0-2,.65,2,2,0,0,0-.95,1.86,1.89,1.89,0,0,0,.67,1.57,2.33,2.33,0,0,0,1.53.44,4.5,4.5,0,0,0,2.57-.9,3.45,3.45,0,0,0,1.13-3Z"/><path id="_Trazado_compuesto_7" data-name="&lt;Trazado compuesto&gt;" class="cls-1" d="M296.71,104.88q2.09,2.06,2.22,6.18.15,4.35-1.74,6.69a6.37,6.37,0,0,1-5,2.44,5.22,5.22,0,0,1-3.31-.87,6,6,0,0,1-1.45-1.53l.24,7.22-4.26.14-.72-21.57,4.12-.14.08,2.43a6.93,6.93,0,0,1,1.43-1.74,5.51,5.51,0,0,1,3.4-1.21A6.5,6.5,0,0,1,296.71,104.88Zm-3.2,3.2a3,3,0,0,0-2.89-1.36,3.23,3.23,0,0,0-3.17,2.32,8.33,8.33,0,0,0-.36,3c.07,1.91.62,3.24,1.68,4a3.58,3.58,0,0,0,2.18.61,3.15,3.15,0,0,0,2.72-1.48,7.28,7.28,0,0,0-.16-7.07Z"/><path id="_Trazado_compuesto_8" data-name="&lt;Trazado compuesto&gt;" class="cls-1" d="M299.34,106.24l-.1-3.06,2.29-.08-.11-3.22,4.26-.15.11,3.23,2.67-.09.1,3.07-2.67.08.29,8.69c0,.68.12,1.09.3,1.25s.7.23,1.57.2l.42,0,.43,0,.1,3.22-2,.14c-2,.14-3.43-.17-4.2-.92a3.16,3.16,0,0,1-.8-2.25l-.34-10.12Z"/><path id="_Trazado_compuesto_9" data-name="&lt;Trazado compuesto&gt;" class="cls-1" d="M324.63,116.63q-2,2.64-6.23,2.78c-2.83.09-5-.69-6.41-2.36a10.19,10.19,0,0,1-.41-12.35c1.33-1.79,3.41-2.72,6.23-2.82s5,.71,6.41,2.4a10.19,10.19,0,0,1,.41,12.35Zm-3.52-2.26a7.66,7.66,0,0,0-.25-7.62,3.83,3.83,0,0,0-5.8.2,6.11,6.11,0,0,0-.89,3.83,6.22,6.22,0,0,0,1.14,3.78,3.8,3.8,0,0,0,5.8-.19Z"/><path id="_Trazado_compuesto_10" data-name="&lt;Trazado compuesto&gt;" class="cls-1" d="M342.43,103.35q2.07,2.07,2.22,6.18.14,4.35-1.75,6.69a6.4,6.4,0,0,1-5,2.45,5.37,5.37,0,0,1-3.31-.87,6.39,6.39,0,0,1-1.45-1.54l.24,7.22-4.25.14-.72-21.56,4.12-.14.08,2.43a6.93,6.93,0,0,1,1.43-1.74,5.52,5.52,0,0,1,3.39-1.22A6.54,6.54,0,0,1,342.43,103.35Zm-3.2,3.21a3,3,0,0,0-2.89-1.37,3.23,3.23,0,0,0-3.17,2.32,8.36,8.36,0,0,0-.36,3c.06,1.91.62,3.23,1.67,4a3.48,3.48,0,0,0,2.19.61,3.15,3.15,0,0,0,2.72-1.48,6.48,6.48,0,0,0,.83-3.73A6.33,6.33,0,0,0,339.23,106.56Z"/></g></g></g></svg>