<svg xmlns="http://www.w3.org/2000/svg" viewBox="0 0 52.41 49.76"><defs><style>.cls-1{fill:#fff;}.cls-2{fill:none;stroke:#ff2946;stroke-miterlimit:10;stroke-width:2.24px;}.cls-3{fill:#ff2946;}</style></defs><title>map-b</title><g id="Capa_2" data-name="Capa 2"><g id="Capa_1-2" data-name="Capa 1"><path class="cls-1" d="M41.53,49.76H10.88A10.89,10.89,0,0,1,0,38.88v-28A10.89,10.89,0,0,1,10.88,0H41.53A10.89,10.89,0,0,1,52.41,10.88v28A10.89,10.89,0,0,1,41.53,49.76Z"/><path class="cls-2" d="M26.2,9.91a11.87,11.87,0,0,1,11.6,9.85,10.32,10.32,0,0,1-.91,6.12,39.06,39.06,0,0,1-4.19,6.81C31,35.07,29,37.23,27,39.46a1,1,0,0,1-1.64,0A75.54,75.54,0,0,1,20,33a37.47,37.47,0,0,1-4.46-7.25,10.36,10.36,0,0,1-1-4.44,11.76,11.76,0,0,1,9.65-11.15C24.82,10,25.51,10,26.2,9.91Z"/><path class="cls-3" d="M26.21,17a4.2,4.2,0,1,0,4.21,4.18A4.19,4.19,0,0,0,26.21,17Z"/></g></g></svg>