<svg xmlns="http://www.w3.org/2000/svg" xmlns:xlink="http://www.w3.org/1999/xlink" viewBox="0 0 37.91 38.48"><defs><style>.cls-1{fill:none;}.cls-2{clip-path:url(#clip-path);}.cls-3{fill:#00b99b;}.cls-4{fill:#fff;}.cls-5{fill:#d9d961;}</style><clipPath id="clip-path" transform="translate(-0.72 -1.75)"><rect class="cls-1" width="38.52" height="26.45"/></clipPath></defs><title>Recurso 6</title><g id="Capa_2" data-name="Capa 2"><g id="Capa_1-2" data-name="Capa 1"><g class="cls-2"><path class="cls-3" d="M18.31,39.31a2.18,2.18,0,0,1-.63-.09L6.76,35.76a2.17,2.17,0,0,1-1.27-1.07C2.8,29.43,1.54,24.76,1.65,20.4a23.08,23.08,0,0,1,4.71-13l0-.06.06-.06a2.33,2.33,0,0,1,1.65-.75,2.39,2.39,0,0,1,.8.15l.09,0,2.05,1a43.53,43.53,0,0,1,3.48-4.37l.08-.09.11-.06a2.67,2.67,0,0,1,1.43-.48A2.49,2.49,0,0,1,17.27,3l.08,0,4.91,3.78a30.8,30.8,0,0,1,5.83-3.21,2,2,0,0,1,.74-.14,2.19,2.19,0,0,1,1.89,1.09l6.74,12a2.21,2.21,0,0,1-1.55,3.18c-3.72.55-7.45,3.13-10.21,7.09C23.81,29.49,22.89,31.93,23,34a2.4,2.4,0,0,1-.54,1.9,2.25,2.25,0,0,1-1.73.83h-.28A2.2,2.2,0,0,1,20,38.53,2.18,2.18,0,0,1,18.31,39.31Z" transform="translate(-0.72 -1.75)"/><path class="cls-4" d="M16.15,3.58a1.58,1.58,0,0,1,.71.19l5.37,4.14a31.38,31.38,0,0,1,6.19-3.5,1.14,1.14,0,0,1,.41-.07A1.25,1.25,0,0,1,29.92,5l6.74,12a1.29,1.29,0,0,1-.88,1.82c-4.57.68-8.37,3.95-10.83,7.47-1.49,2.16-3,5-2.91,7.87a1.44,1.44,0,0,1-1.35,1.72h-.11l-1.9-.61c.22.45.45.91.71,1.38A1.25,1.25,0,0,1,19.27,38a1.27,1.27,0,0,1-1,.45,1,1,0,0,1-.35-.06L7,34.89a1.28,1.28,0,0,1-.73-.62c-2.56-5-3.85-9.51-3.75-13.85A22.24,22.24,0,0,1,7.1,7.92a1.43,1.43,0,0,1,1-.49,1.61,1.61,0,0,1,.5.09l2.76,1.31a40,40,0,0,1,3.84-4.92h0a1.73,1.73,0,0,1,.94-.33m0-1.83h0a3.6,3.6,0,0,0-1.92.61L14,2.49l-.17.19A43.7,43.7,0,0,0,10.74,6.5L9.39,5.87l-.09,0-.1,0A3.29,3.29,0,0,0,8.11,5.6a3.21,3.21,0,0,0-2.28,1l-.12.12-.1.13A23.88,23.88,0,0,0,.73,20.37c-.11,4.52,1.18,9.34,4,14.74a3.12,3.12,0,0,0,1.81,1.53L17.4,40.09a3.07,3.07,0,0,0,3.29-1,3,3,0,0,0,.66-1.54,3.21,3.21,0,0,0,1.77-1.08,3.31,3.31,0,0,0,.75-2.57c-.05-1.86.82-4.1,2.59-6.66,2.61-3.74,6.11-6.18,9.59-6.7A3.11,3.11,0,0,0,38.26,16l-6.74-12A3.12,3.12,0,0,0,28.83,2.5a3,3,0,0,0-1.07.2A31.32,31.32,0,0,0,22.3,5.64L18,2.32l-.14-.11-.16-.08a3.33,3.33,0,0,0-1.53-.38Z" transform="translate(-0.72 -1.75)"/><path class="cls-3" d="M16.29,6.42,25,13.15a25.09,25.09,0,0,0-6.14,9.06,15.81,15.81,0,0,0,0,10.48l-1.45-.45a16.74,16.74,0,0,1-.89-7.06A18.78,18.78,0,0,1,21.13,15.1a1.29,1.29,0,0,0-.43-1.88L13.64,9.89a39.22,39.22,0,0,1,2.65-3.47Z" transform="translate(-0.72 -1.75)"/><path class="cls-3" d="M8.56,10.21l9.75,4.59A20.58,20.58,0,0,0,14.1,24.93,20.33,20.33,0,0,0,16,35.14L8.29,32.7C6,28.14,4.92,24.16,5,20.48A19.11,19.11,0,0,1,8.56,10.21Z" transform="translate(-0.72 -1.75)"/><path class="cls-3" d="M28.36,7.17l5.35,9.52C29.05,18,25.38,21.32,23,24.8a22.46,22.46,0,0,0-2.45,4.48A12.94,12.94,0,0,1,21.16,23a24.48,24.48,0,0,1,6.53-9.13,1.29,1.29,0,0,0-.09-1.86L24.32,9.52a32.48,32.48,0,0,1,4-2.35Z" transform="translate(-0.72 -1.75)"/><path class="cls-5" d="M16.29,6.42,25,13.15a25.09,25.09,0,0,0-6.14,9.06,15.81,15.81,0,0,0,0,10.48l-1.45-.45a16.74,16.74,0,0,1-.89-7.06A18.78,18.78,0,0,1,21.13,15.1a1.29,1.29,0,0,0-.43-1.88L13.64,9.89a39.22,39.22,0,0,1,2.65-3.47Z" transform="translate(-0.72 -1.75)"/><path class="cls-5" d="M8.56,10.21l9.75,4.59A20.58,20.58,0,0,0,14.1,24.93,20.33,20.33,0,0,0,16,35.14L8.29,32.7C6,28.14,4.92,24.16,5,20.48A19.11,19.11,0,0,1,8.56,10.21Z" transform="translate(-0.72 -1.75)"/><path class="cls-5" d="M28.36,7.17l5.35,9.52C29.05,18,25.38,21.32,23,24.8a22.46,22.46,0,0,0-2.45,4.48A12.94,12.94,0,0,1,21.16,23a24.48,24.48,0,0,1,6.53-9.13,1.29,1.29,0,0,0-.09-1.86L24.32,9.52a32.48,32.48,0,0,1,4-2.35Z" transform="translate(-0.72 -1.75)"/></g></g></g></svg>