<svg xmlns="http://www.w3.org/2000/svg" viewBox="0 0 52.41 49.76"><defs><style>.cls-1{fill:#fff;}.cls-2{fill:#ff2946;}</style></defs><title>whatsapp-b</title><g id="Capa_2" data-name="Capa 2"><g id="Capa_1-2" data-name="Capa 1"><path class="cls-1" d="M41.53,49.76H10.88A10.89,10.89,0,0,1,0,38.88v-28A10.89,10.89,0,0,1,10.88,0H41.53A10.89,10.89,0,0,1,52.41,10.88v28A10.89,10.89,0,0,1,41.53,49.76Z"/><path class="cls-2" d="M10.49,40.73c.83-2.48,1.59-4.85,2.43-7.19a2.25,2.25,0,0,0-.13-1.94,15.44,15.44,0,1,1,15.84,8.19,14.79,14.79,0,0,1-8.94-1.44,1.71,1.71,0,0,0-1.43-.09c-2.39.79-4.78,1.54-7.18,2.31Zm4-3.9c1.56-.5,3-.94,4.4-1.42a1.2,1.2,0,0,1,1.06.12,12.35,12.35,0,0,0,12.75.23,12.24,12.24,0,0,0,6.69-11.32,12.86,12.86,0,1,0-23.6,7.12,1.06,1.06,0,0,1,.15,1C15.41,34,15,35.32,14.45,36.83Z"/><path class="cls-2" d="M21.7,17c.78-.17,1.16.28,1.39,1a16.45,16.45,0,0,0,.84,2.25A1.44,1.44,0,0,1,23.65,22c-1.06,1.25-1,1.26-.11,2.63A10.81,10.81,0,0,0,28,28.33a.81.81,0,0,0,1.11-.22c.35-.43.73-.82,1.07-1.25a.68.68,0,0,1,.94-.23c1,.54,2.07,1.06,3.08,1.64a.94.94,0,0,1,.32.73,3.28,3.28,0,0,1-2.78,3.1A4.66,4.66,0,0,1,29.33,32a15.25,15.25,0,0,1-8.73-6.64,9.2,9.2,0,0,1-1.79-4.14,4.42,4.42,0,0,1,1.34-3.68A1.65,1.65,0,0,1,21.7,17Z"/></g></g></svg>